# xmcd
# 
# Track frame offsets:
#     150
#     13164
#     26313
#     50135
#     65256
#     81544
#     93720
#     106474
#     119031
#     135453
#     148589
#     161534
#     171124
#     203615
#     220277
#     232489
# 
# Disc length: 3251
# 
# Revision: 4
# Processed by: cddbd v1.5.2PL0 Copyright (c) Steve Scherf et al.
# Submitted via: BonkEnc v1.0
# 
DISCID=f00cb110
DTITLE=Various Artist - Body and Soul - Disk 2
DYEAR=2004
DGENRE=Soul
TTITLE0=Isley Brothers - This old heart of mine
TTITLE1=Jackie Wilson - higher and higher
TTITLE2=James Brown - Sex Machine
TTITLE3=Martha Reeves and the Vandelas - Dancing in the Streets
TTITLE4=Nina Simone - My baby just cares for me
TTITLE5=Otis Reding - Sittin on the dock of the baby
TTITLE6=Percy Sledge - When a man loves a Woman
TTITLE7=Rare Earth - Get ready
TTITLE8=Ray Charles - Georgia on my Minds
TTITLE9=Sam and Dave - Soul Man
TTITLE10=Sweet Inspirations - Sweet Inspirations
TTITLE11=Sam Cooke - Wonderful World
TTITLE12=Temptations - Papa was a rolling stone
TTITLE13=Timmy Thomas /Why can't we lve together
TTITLE14=Undisputed Truth - Lan of the Land
TTITLE15=Wilson Picket - In the Midnight Hour
EXTD=CD EDIT wg14@gmx.at\nCD BY Fa. SCHERING making medicine work
EXTT0=
EXTT1=
EXTT2=
EXTT3=
EXTT4=
EXTT5=
EXTT6=
EXTT7=
EXTT8=
EXTT9=
EXTT10=
EXTT11=
EXTT12=
EXTT13=
EXTT14=
EXTT15=
PLAYORDER=
